<svg xmlns="http://www.w3.org/2000/svg" xmlns:xlink="http://www.w3.org/1999/xlink" width="40" zoomAndPan="magnify" viewBox="0 0 30 30.000001" height="40" preserveAspectRatio="xMidYMid meet" version="1.0"><defs><clipPath id="576d31de1f"><path d="M 0.484375 0 L 29.515625 0 L 29.515625 29.03125 L 0.484375 29.03125 Z M 0.484375 0 " clip-rule="nonzero"/></clipPath><clipPath id="1953ce9e61"><path d="M 1.933594 0 L 23.710938 0 L 23.710938 24.675781 L 1.933594 24.675781 Z M 1.933594 0 " clip-rule="nonzero"/></clipPath><clipPath id="0bcc0f6d25"><path d="M 18.101562 19.070312 L 27.574219 19.070312 L 27.574219 28.542969 L 18.101562 28.542969 Z M 18.101562 19.070312 " clip-rule="nonzero"/></clipPath><clipPath id="066a038866"><path d="M 22.839844 19.070312 C 20.222656 19.070312 18.101562 21.191406 18.101562 23.804688 C 18.101562 26.421875 20.222656 28.542969 22.839844 28.542969 C 25.453125 28.542969 27.574219 26.421875 27.574219 23.804688 C 27.574219 21.191406 25.453125 19.070312 22.839844 19.070312 Z M 22.839844 19.070312 " clip-rule="nonzero"/></clipPath><clipPath id="3b0a547497"><path d="M 17.613281 18.582031 L 27.773438 18.582031 L 27.773438 28.742188 L 17.613281 28.742188 Z M 17.613281 18.582031 " clip-rule="nonzero"/></clipPath></defs><g clip-path="url(#576d31de1f)"><path fill="#ffffff" d="M 0.484375 0 L 29.515625 0 L 29.515625 29.03125 L 0.484375 29.03125 Z M 0.484375 0 " fill-opacity="1" fill-rule="nonzero"/><path fill="#ffffff" d="M 0.484375 0 L 29.515625 0 L 29.515625 29.03125 L 0.484375 29.03125 Z M 0.484375 0 " fill-opacity="1" fill-rule="nonzero"/></g><g clip-path="url(#1953ce9e61)"><path fill="#000000" d="M 21.570312 0 L 7.914062 0 C 6.738281 0 5.78125 0.953125 5.78125 2.128906 L 5.78125 11.914062 L 2.367188 11.914062 C 2.132812 11.914062 1.941406 12.105469 1.941406 12.339844 L 1.941406 22.335938 C 1.941406 23.625 2.996094 24.675781 4.289062 24.675781 L 21.570312 24.675781 C 22.75 24.675781 23.703125 23.722656 23.703125 22.550781 L 23.703125 2.128906 C 23.703125 0.953125 22.75 0 21.570312 0 Z M 5.78125 22.335938 C 5.78125 23.160156 5.113281 23.828125 4.289062 23.828125 C 3.464844 23.828125 2.792969 23.160156 2.792969 22.335938 L 2.792969 12.765625 L 5.78125 12.765625 Z M 15.1875 3.089844 L 17.378906 3.089844 C 17.613281 3.089844 17.808594 3.28125 17.808594 3.515625 C 17.808594 3.75 17.613281 3.941406 17.378906 3.941406 L 15.1875 3.941406 C 14.953125 3.941406 14.761719 3.75 14.761719 3.515625 C 14.761719 3.28125 14.949219 3.089844 15.1875 3.089844 Z M 15.1875 5.515625 L 21.132812 5.515625 C 21.367188 5.515625 21.558594 5.707031 21.558594 5.941406 C 21.558594 6.171875 21.367188 6.363281 21.132812 6.363281 L 15.1875 6.363281 C 14.953125 6.363281 14.761719 6.171875 14.761719 5.941406 C 14.761719 5.707031 14.949219 5.515625 15.1875 5.515625 Z M 7.769531 6.582031 C 7.992188 5.714844 8.585938 5.027344 9.359375 4.664062 C 9.078125 4.359375 8.90625 3.960938 8.90625 3.519531 C 8.90625 2.578125 9.671875 1.8125 10.617188 1.8125 C 11.558594 1.8125 12.328125 2.578125 12.328125 3.519531 C 12.328125 3.960938 12.152344 4.359375 11.875 4.664062 C 12.65625 5.035156 13.257812 5.726562 13.472656 6.613281 C 13.492188 6.695312 13.484375 6.785156 13.453125 6.871094 C 13.4375 6.917969 13.410156 6.960938 13.378906 6.996094 C 12.675781 7.78125 11.675781 8.234375 10.617188 8.234375 C 9.566406 8.234375 8.566406 7.789062 7.871094 7.011719 C 7.832031 6.972656 7.800781 6.921875 7.777344 6.871094 C 7.746094 6.777344 7.738281 6.675781 7.769531 6.582031 Z M 21.222656 21.457031 L 8.265625 21.457031 C 8.03125 21.457031 7.839844 21.265625 7.839844 21.03125 C 7.839844 20.796875 8.03125 20.605469 8.265625 20.605469 L 21.214844 20.605469 C 21.453125 20.605469 21.644531 20.796875 21.644531 21.03125 C 21.644531 21.265625 21.457031 21.457031 21.222656 21.457031 Z M 21.222656 18.722656 L 8.265625 18.722656 C 8.03125 18.722656 7.839844 18.53125 7.839844 18.296875 C 7.839844 18.0625 8.03125 17.871094 8.265625 17.871094 L 21.214844 17.871094 C 21.453125 17.871094 21.644531 18.0625 21.644531 18.296875 C 21.644531 18.53125 21.457031 18.722656 21.222656 18.722656 Z M 21.222656 15.984375 L 8.265625 15.984375 C 8.03125 15.984375 7.839844 15.792969 7.839844 15.558594 C 7.839844 15.324219 8.03125 15.132812 8.265625 15.132812 L 21.214844 15.132812 C 21.453125 15.132812 21.644531 15.324219 21.644531 15.558594 C 21.644531 15.792969 21.457031 15.984375 21.222656 15.984375 Z M 21.222656 13.25 L 8.265625 13.25 C 8.03125 13.25 7.839844 13.058594 7.839844 12.824219 C 7.839844 12.589844 8.03125 12.398438 8.265625 12.398438 L 21.214844 12.398438 C 21.453125 12.398438 21.644531 12.589844 21.644531 12.824219 C 21.644531 13.058594 21.457031 13.25 21.222656 13.25 Z M 21.222656 10.511719 L 8.265625 10.511719 C 8.03125 10.511719 7.839844 10.320312 7.839844 10.089844 C 7.839844 9.855469 8.03125 9.664062 8.265625 9.664062 L 21.214844 9.664062 C 21.453125 9.664062 21.644531 9.855469 21.644531 10.089844 C 21.644531 10.320312 21.457031 10.511719 21.222656 10.511719 Z M 21.222656 10.511719 " fill-opacity="1" fill-rule="nonzero"/></g><g clip-path="url(#0bcc0f6d25)"><g clip-path="url(#066a038866)"><path fill="#ffffff" d="M 18.101562 19.070312 L 27.574219 19.070312 L 27.574219 28.542969 L 18.101562 28.542969 Z M 18.101562 19.070312 " fill-opacity="1" fill-rule="nonzero"/></g></g><g clip-path="url(#3b0a547497)"><path fill="#000000" d="M 22.695312 18.582031 C 22.359375 18.582031 22.03125 18.613281 21.703125 18.679688 C 21.375 18.742188 21.058594 18.839844 20.75 18.96875 C 20.441406 19.09375 20.148438 19.25 19.871094 19.4375 C 19.59375 19.621094 19.335938 19.832031 19.101562 20.070312 C 18.863281 20.304688 18.65625 20.5625 18.46875 20.839844 C 18.285156 21.117188 18.128906 21.410156 18 21.71875 C 17.871094 22.023438 17.777344 22.34375 17.710938 22.671875 C 17.644531 22.996094 17.613281 23.328125 17.613281 23.660156 C 17.613281 23.996094 17.644531 24.324219 17.710938 24.652344 C 17.777344 24.980469 17.871094 25.296875 18 25.605469 C 18.128906 25.914062 18.285156 26.207031 18.46875 26.484375 C 18.65625 26.761719 18.863281 27.019531 19.101562 27.253906 C 19.335938 27.488281 19.59375 27.699219 19.871094 27.886719 C 20.148438 28.070312 20.441406 28.226562 20.75 28.355469 C 21.058594 28.484375 21.375 28.578125 21.703125 28.644531 C 22.03125 28.710938 22.359375 28.742188 22.695312 28.742188 C 23.027344 28.742188 23.359375 28.710938 23.683594 28.644531 C 24.011719 28.578125 24.328125 28.484375 24.636719 28.355469 C 24.945312 28.226562 25.238281 28.070312 25.515625 27.886719 C 25.792969 27.699219 26.050781 27.488281 26.285156 27.253906 C 26.523438 27.019531 26.734375 26.761719 26.917969 26.484375 C 27.101562 26.207031 27.261719 25.914062 27.386719 25.605469 C 27.515625 25.296875 27.613281 24.980469 27.675781 24.652344 C 27.742188 24.324219 27.773438 23.996094 27.773438 23.660156 C 27.773438 23.328125 27.742188 22.996094 27.675781 22.671875 C 27.613281 22.34375 27.515625 22.023438 27.386719 21.71875 C 27.261719 21.410156 27.101562 21.117188 26.917969 20.839844 C 26.734375 20.5625 26.523438 20.304688 26.285156 20.070312 C 26.050781 19.832031 25.792969 19.621094 25.515625 19.4375 C 25.238281 19.25 24.945312 19.09375 24.636719 18.96875 C 24.328125 18.839844 24.011719 18.742188 23.683594 18.679688 C 23.359375 18.613281 23.027344 18.582031 22.695312 18.582031 Z M 20.578125 23.179688 C 20.613281 23.089844 20.675781 23.046875 20.769531 23.046875 L 21.523438 23.046875 L 21.523438 20.929688 C 21.523438 20.789062 21.59375 20.71875 21.738281 20.71875 L 23.671875 20.71875 C 23.8125 20.71875 23.882812 20.789062 23.882812 20.929688 L 23.882812 23.046875 L 24.636719 23.046875 C 24.730469 23.046875 24.792969 23.09375 24.828125 23.179688 C 24.863281 23.265625 24.851562 23.339844 24.785156 23.40625 L 23.824219 24.367188 L 22.839844 25.355469 C 22.800781 25.394531 22.75 25.417969 22.695312 25.417969 C 22.632812 25.417969 22.582031 25.398438 22.542969 25.355469 L 21.578125 24.382812 L 20.613281 23.414062 C 20.546875 23.34375 20.535156 23.265625 20.578125 23.179688 Z M 24.839844 26.371094 C 24.839844 26.511719 24.769531 26.582031 24.628906 26.582031 L 20.757812 26.582031 C 20.617188 26.582031 20.546875 26.511719 20.546875 26.371094 L 20.546875 25.949219 C 20.546875 25.804688 20.617188 25.734375 20.757812 25.734375 L 24.625 25.734375 C 24.765625 25.734375 24.835938 25.804688 24.835938 25.949219 L 24.835938 26.371094 Z M 24.839844 26.371094 " fill-opacity="1" fill-rule="nonzero"/></g></svg>