<svg xmlns="http://www.w3.org/2000/svg" xmlns:xlink="http://www.w3.org/1999/xlink" width="40" zoomAndPan="magnify" viewBox="0 0 30 30.000001" height="40" preserveAspectRatio="xMidYMid meet" version="1.0"><defs><clipPath id="7cbfcd234d"><path d="M 1.933594 0 L 23.710938 0 L 23.710938 24.675781 L 1.933594 24.675781 Z M 1.933594 0 " clip-rule="nonzero"/></clipPath><clipPath id="0d01c5fb18"><path d="M 18.101562 19.070312 L 27.574219 19.070312 L 27.574219 28.542969 L 18.101562 28.542969 Z M 18.101562 19.070312 " clip-rule="nonzero"/></clipPath><clipPath id="8ebab345fb"><path d="M 22.839844 19.070312 C 20.222656 19.070312 18.101562 21.191406 18.101562 23.804688 C 18.101562 26.421875 20.222656 28.542969 22.839844 28.542969 C 25.453125 28.542969 27.574219 26.421875 27.574219 23.804688 C 27.574219 21.191406 25.453125 19.070312 22.839844 19.070312 Z M 22.839844 19.070312 " clip-rule="nonzero"/></clipPath><clipPath id="b2a370e2a3"><path d="M 17.613281 18.582031 L 27.773438 18.582031 L 27.773438 28.742188 L 17.613281 28.742188 Z M 17.613281 18.582031 " clip-rule="nonzero"/></clipPath></defs><g clip-path="url(#7cbfcd234d)"><path fill="#ffffff" d="M 21.683594 0 L 7.949219 0 C 6.765625 0 5.804688 0.960938 5.804688 2.144531 L 5.804688 12.015625 L 2.371094 12.015625 C 2.132812 12.015625 1.941406 12.210938 1.941406 12.445312 L 1.941406 22.53125 C 1.941406 23.832031 3 24.894531 4.300781 24.894531 L 21.683594 24.894531 C 22.867188 24.894531 23.828125 23.929688 23.828125 22.746094 L 23.828125 2.144531 C 23.828125 0.960938 22.867188 0 21.683594 0 Z M 5.804688 22.53125 C 5.804688 23.359375 5.128906 24.035156 4.300781 24.035156 C 3.472656 24.035156 2.800781 23.359375 2.800781 22.53125 L 2.800781 12.875 L 5.804688 12.875 Z M 15.261719 3.117188 L 17.46875 3.117188 C 17.703125 3.117188 17.898438 3.308594 17.898438 3.546875 C 17.898438 3.78125 17.703125 3.972656 17.46875 3.972656 L 15.261719 3.972656 C 15.027344 3.972656 14.832031 3.78125 14.832031 3.546875 C 14.832031 3.308594 15.023438 3.117188 15.261719 3.117188 Z M 15.261719 5.5625 L 21.242188 5.5625 C 21.476562 5.5625 21.671875 5.753906 21.671875 5.992188 C 21.671875 6.226562 21.476562 6.421875 21.242188 6.421875 L 15.261719 6.421875 C 15.027344 6.421875 14.832031 6.226562 14.832031 5.992188 C 14.832031 5.753906 15.023438 5.5625 15.261719 5.5625 Z M 7.804688 6.640625 C 8.027344 5.765625 8.625 5.074219 9.398438 4.703125 C 9.121094 4.398438 8.945312 3.996094 8.945312 3.550781 C 8.945312 2.601562 9.71875 1.828125 10.667969 1.828125 C 11.613281 1.828125 12.386719 2.601562 12.386719 3.550781 C 12.386719 3.996094 12.210938 4.398438 11.933594 4.703125 C 12.71875 5.078125 13.324219 5.777344 13.539062 6.667969 C 13.558594 6.753906 13.550781 6.84375 13.519531 6.929688 C 13.503906 6.980469 13.476562 7.023438 13.441406 7.054688 C 12.738281 7.851562 11.730469 8.304688 10.667969 8.304688 C 9.609375 8.304688 8.605469 7.859375 7.90625 7.074219 C 7.867188 7.035156 7.832031 6.984375 7.8125 6.929688 C 7.777344 6.835938 7.773438 6.734375 7.804688 6.640625 Z M 21.332031 21.644531 L 8.300781 21.644531 C 8.066406 21.644531 7.871094 21.449219 7.871094 21.214844 C 7.871094 20.980469 8.066406 20.785156 8.300781 20.785156 L 21.328125 20.785156 C 21.5625 20.785156 21.757812 20.980469 21.757812 21.214844 C 21.757812 21.449219 21.566406 21.644531 21.332031 21.644531 Z M 21.332031 18.882812 L 8.300781 18.882812 C 8.066406 18.882812 7.871094 18.691406 7.871094 18.453125 C 7.871094 18.21875 8.066406 18.027344 8.300781 18.027344 L 21.328125 18.027344 C 21.5625 18.027344 21.757812 18.21875 21.757812 18.453125 C 21.757812 18.691406 21.566406 18.882812 21.332031 18.882812 Z M 21.332031 16.125 L 8.300781 16.125 C 8.066406 16.125 7.871094 15.929688 7.871094 15.695312 C 7.871094 15.460938 8.066406 15.265625 8.300781 15.265625 L 21.328125 15.265625 C 21.5625 15.265625 21.757812 15.460938 21.757812 15.695312 C 21.757812 15.929688 21.566406 16.125 21.332031 16.125 Z M 21.332031 13.363281 L 8.300781 13.363281 C 8.066406 13.363281 7.871094 13.171875 7.871094 12.9375 C 7.871094 12.699219 8.066406 12.507812 8.300781 12.507812 L 21.328125 12.507812 C 21.5625 12.507812 21.757812 12.699219 21.757812 12.9375 C 21.757812 13.171875 21.566406 13.363281 21.332031 13.363281 Z M 21.332031 10.605469 L 8.300781 10.605469 C 8.066406 10.605469 7.871094 10.410156 7.871094 10.175781 C 7.871094 9.941406 8.066406 9.746094 8.300781 9.746094 L 21.328125 9.746094 C 21.5625 9.746094 21.757812 9.941406 21.757812 10.175781 C 21.757812 10.410156 21.566406 10.605469 21.332031 10.605469 Z M 21.332031 10.605469 " fill-opacity="1" fill-rule="nonzero"/></g><g clip-path="url(#0d01c5fb18)"><g clip-path="url(#8ebab345fb)"><path fill="#1c405d" d="M 18.101562 19.070312 L 27.574219 19.070312 L 27.574219 28.542969 L 18.101562 28.542969 Z M 18.101562 19.070312 " fill-opacity="1" fill-rule="nonzero"/></g></g><g clip-path="url(#b2a370e2a3)"><path fill="#ffffff" d="M 22.835938 18.582031 C 22.492188 18.582031 22.152344 18.613281 21.816406 18.679688 C 21.480469 18.746094 21.152344 18.847656 20.835938 18.976562 C 20.519531 19.109375 20.21875 19.269531 19.933594 19.460938 C 19.648438 19.652344 19.386719 19.867188 19.140625 20.109375 C 18.898438 20.351562 18.683594 20.617188 18.492188 20.902344 C 18.300781 21.1875 18.140625 21.488281 18.011719 21.804688 C 17.878906 22.121094 17.78125 22.449219 17.714844 22.785156 C 17.644531 23.121094 17.613281 23.460938 17.613281 23.804688 C 17.613281 24.144531 17.644531 24.484375 17.714844 24.820312 C 17.78125 25.160156 17.878906 25.484375 18.011719 25.800781 C 18.140625 26.117188 18.300781 26.417969 18.492188 26.703125 C 18.683594 26.988281 18.898438 27.253906 19.140625 27.496094 C 19.386719 27.738281 19.648438 27.953125 19.933594 28.144531 C 20.21875 28.335938 20.519531 28.496094 20.835938 28.628906 C 21.152344 28.757812 21.480469 28.859375 21.816406 28.925781 C 22.152344 28.992188 22.492188 29.027344 22.835938 29.027344 C 23.179688 29.027344 23.519531 28.992188 23.855469 28.925781 C 24.191406 28.859375 24.515625 28.757812 24.832031 28.628906 C 25.152344 28.496094 25.453125 28.335938 25.738281 28.144531 C 26.023438 27.953125 26.285156 27.738281 26.527344 27.496094 C 26.769531 27.253906 26.988281 26.988281 27.175781 26.703125 C 27.367188 26.417969 27.527344 26.117188 27.660156 25.800781 C 27.792969 25.484375 27.890625 25.160156 27.957031 24.820312 C 28.023438 24.484375 28.058594 24.144531 28.058594 23.804688 C 28.058594 23.460938 28.023438 23.121094 27.957031 22.785156 C 27.890625 22.449219 27.792969 22.121094 27.660156 21.804688 C 27.527344 21.488281 27.367188 21.1875 27.175781 20.902344 C 26.988281 20.617188 26.769531 20.351562 26.527344 20.109375 C 26.285156 19.867188 26.023438 19.652344 25.738281 19.460938 C 25.453125 19.269531 25.152344 19.109375 24.832031 18.976562 C 24.515625 18.847656 24.191406 18.746094 23.855469 18.679688 C 23.519531 18.613281 23.179688 18.582031 22.835938 18.582031 Z M 20.660156 23.308594 C 20.695312 23.21875 20.761719 23.171875 20.859375 23.171875 L 21.632812 23.171875 L 21.632812 20.996094 C 21.632812 20.851562 21.707031 20.777344 21.851562 20.777344 L 23.839844 20.777344 C 23.984375 20.777344 24.058594 20.851562 24.058594 20.996094 L 24.058594 23.171875 L 24.832031 23.171875 C 24.929688 23.171875 24.996094 23.21875 25.03125 23.308594 C 25.066406 23.394531 25.050781 23.472656 24.984375 23.542969 L 23.996094 24.53125 L 22.988281 25.542969 C 22.945312 25.585938 22.894531 25.609375 22.835938 25.609375 C 22.773438 25.609375 22.722656 25.585938 22.679688 25.542969 L 21.691406 24.542969 L 20.699219 23.550781 C 20.628906 23.476562 20.617188 23.398438 20.660156 23.308594 Z M 25.042969 26.589844 C 25.042969 26.734375 24.96875 26.804688 24.824219 26.804688 L 20.847656 26.804688 C 20.703125 26.804688 20.628906 26.734375 20.628906 26.589844 L 20.628906 26.152344 C 20.628906 26.007812 20.703125 25.933594 20.847656 25.933594 L 24.820312 25.933594 C 24.964844 25.933594 25.039062 26.007812 25.039062 26.152344 L 25.039062 26.589844 Z M 25.042969 26.589844 " fill-opacity="1" fill-rule="nonzero"/></g></svg>