<?xml version="1.0" standalone="no"?>
<!DOCTYPE svg PUBLIC "-//W3C//DTD SVG 20010904//EN"
 "http://www.w3.org/TR/2001/REC-SVG-20010904/DTD/svg10.dtd">
<svg version="1.0" xmlns="http://www.w3.org/2000/svg"
 width="512.000000pt" height="512.000000pt" viewBox="0 0 512.000000 512.000000"
 preserveAspectRatio="xMidYMid meet">
<metadata>
Created by potrace 1.10, written by Peter Selinger 2001-2011
</metadata>
<g transform="translate(0.000000,512.000000) scale(0.100000,-0.100000)"
fill="#000000" stroke="none">
<path d="M1775 4543 c-98 -13 -197 -56 -264 -114 -24 -22 -50 -39 -57 -39 -7
0 -25 -10 -41 -23 -15 -13 -36 -26 -45 -30 -10 -3 -18 -15 -18 -26 0 -10 -6
-21 -14 -24 -7 -3 -26 -27 -41 -54 -15 -26 -37 -58 -47 -70 -12 -12 -17 -27
-13 -34 5 -8 4 -10 -4 -5 -8 5 -10 0 -7 -20 4 -18 0 -31 -11 -39 -9 -7 -17
-21 -18 -33 0 -11 -7 -27 -14 -36 -8 -9 -10 -16 -6 -16 4 0 0 -11 -9 -25 -9
-13 -16 -30 -16 -37 0 -8 5 -6 11 5 11 18 39 24 39 7 0 -5 -5 -10 -11 -10 -5
0 -7 -5 -4 -10 4 -6 1 -18 -7 -27 -9 -12 -9 -15 0 -9 15 9 16 -6 0 -22 -9 -9
-9 -12 3 -12 10 0 15 -11 15 -37 0 -21 10 -58 21 -83 18 -37 22 -72 27 -205 7
-162 13 -245 22 -278 4 -11 -1 -20 -13 -24 -44 -15 -53 -33 -53 -109 0 -40 5
-85 11 -101 6 -15 13 -50 15 -78 9 -121 31 -217 55 -238 l23 -22 -18 22 c-13
16 -17 31 -12 56 4 23 0 45 -13 73 -15 30 -20 61 -20 120 1 43 -4 99 -9 124
-6 25 -11 64 -10 88 0 38 3 43 22 40 19 -3 22 -13 32 -128 6 -69 15 -143 19
-165 7 -37 7 -39 -8 -26 -10 7 -17 10 -17 7 0 -11 22 -50 32 -57 7 -4 38 -125
38 -146 0 -2 -8 -3 -17 -4 -15 0 -14 -3 4 -11 21 -10 63 -98 63 -131 0 -7 14
-35 31 -61 21 -35 33 -46 41 -38 6 6 8 18 4 28 -4 9 -9 14 -13 10 -9 -9 -29
24 -38 64 -4 19 -12 41 -17 47 -6 7 -8 22 -5 33 3 11 0 23 -5 27 -6 3 -8 1 -4
-5 3 -6 2 -13 -3 -16 -5 -3 -11 4 -15 17 -9 33 -7 39 7 32 6 -4 4 0 -6 8 -10
8 -17 19 -15 23 1 5 -5 43 -14 84 -50 236 -51 244 -44 431 4 99 3 179 -1 179
-11 0 -10 41 1 59 6 9 5 12 0 8 -6 -3 -10 23 -10 64 0 38 4 69 8 69 4 0 5 -7
2 -15 -4 -8 -1 -15 5 -15 6 0 11 3 12 8 0 4 2 15 4 25 2 12 -1 17 -10 13 -10
-3 -12 0 -8 11 5 12 3 14 -8 8 -8 -5 -5 2 6 14 16 18 17 24 5 31 -8 5 -18 6
-22 4 -4 -3 -8 0 -8 6 0 7 9 9 23 5 19 -5 20 -4 5 5 -10 6 -18 20 -18 30 0 13
-7 20 -18 20 -26 0 -34 11 -19 24 7 6 11 10 8 9 -11 -6 -32 30 -28 47 3 11 1
23 -4 26 -6 4 -6 10 -1 17 5 7 9 33 8 59 -2 35 1 45 11 41 11 -4 11 -8 1 -21
-11 -13 -11 -14 0 -8 8 5 18 2 26 -9 11 -15 13 -15 25 -1 7 8 11 21 8 28 -4 8
-6 7 -6 -4 -1 -10 -5 -18 -11 -18 -14 0 -12 17 3 32 12 10 10 15 -11 25 -31
16 -33 16 -26 -2 4 -11 2 -13 -9 -9 -9 3 -25 1 -36 -6 -26 -13 -27 -7 -3 16 9
10 18 20 18 23 8 34 18 49 30 44 8 -3 16 5 20 23 5 18 3 29 -4 32 -8 2 -6 12
6 30 29 46 42 56 55 43 6 -6 16 -11 21 -11 6 0 4 5 -4 10 -10 6 -11 10 -2 10
6 0 11 3 10 8 -1 4 4 18 11 32 l14 25 -23 -20 -22 -20 3 25 c3 17 9 24 22 22
9 -2 17 3 17 11 0 8 7 17 15 21 8 3 14 0 12 -7 -1 -7 5 -10 13 -8 40 9 90 10
90 1 0 -6 7 -10 16 -10 8 0 12 -5 9 -10 -4 -6 -10 -8 -14 -6 -4 3 -13 0 -21
-6 -12 -8 -12 -9 2 -4 10 3 25 -2 33 -11 12 -11 19 -13 27 -5 8 8 7 13 -5 18
-9 3 -15 10 -12 14 7 12 -37 38 -79 45 -27 6 -36 4 -36 -6 0 -11 -2 -11 -10 1
-14 22 5 28 84 25 59 -3 68 -1 53 10 -12 8 -30 10 -60 5 -28 -6 -44 -5 -49 3
-5 8 8 15 42 20 28 5 50 13 50 18 0 5 5 9 10 9 6 0 10 -6 10 -12 0 -8 14 -13
35 -13 19 0 35 2 35 3 0 7 -45 41 -55 42 -5 0 -3 -5 5 -10 11 -8 7 -9 -15 -4
-38 9 -44 14 -17 14 13 0 22 6 22 15 0 9 9 15 25 15 13 0 28 7 33 16 6 12 18
15 36 12 18 -4 26 -1 26 8 0 8 5 14 10 14 6 0 10 -5 10 -11 0 -6 7 -9 15 -5 8
3 33 -1 55 -9 22 -8 40 -11 40 -7 0 4 4 2 8 -4 12 -19 102 -64 126 -64 29 0
107 -83 83 -88 -9 -2 -27 4 -40 12 -13 9 -27 13 -31 9 -4 -5 -7 -1 -6 7 4 26
0 40 -11 40 -6 0 -8 -9 -4 -20 4 -13 2 -20 -7 -20 -17 -1 16 -20 42 -25 50
-10 51 -22 2 -20 -40 3 -52 0 -52 -11 0 -8 5 -14 11 -14 5 0 8 4 5 8 -2 4 12
7 32 6 20 -1 52 5 70 13 32 14 35 13 56 -6 12 -12 26 -18 29 -14 4 3 7 -1 7
-10 0 -19 16 -31 30 -22 16 10 -8 45 -31 45 -13 0 -18 4 -13 12 4 7 3 8 -5 4
-6 -4 -14 0 -17 8 -3 9 -10 13 -15 10 -18 -10 -31 7 -17 23 11 14 10 15 -7 10
-14 -5 -31 3 -59 28 -21 19 -42 32 -47 30 -4 -3 -10 -1 -14 5 -3 5 -15 10 -26
10 -13 0 -19 6 -17 18 2 11 -3 16 -14 14 -9 -1 -19 2 -23 8 -3 5 -15 10 -26
10 -12 0 -17 4 -13 11 5 8 1 8 -14 0 -29 -15 -37 -14 -22 4 10 12 10 15 -3 15
-8 0 -17 -3 -20 -7 -2 -5 -2 -3 -1 4 2 6 -9 14 -24 16 -15 2 -4 5 24 6 29 0
58 -5 69 -13 10 -7 26 -11 36 -9 9 3 20 0 23 -6 11 -17 26 -13 19 5 -4 12 0
14 23 8 34 -8 43 -14 22 -14 -8 0 -15 -6 -15 -12 0 -15 47 -20 63 -7 11 9 44
-18 41 -35 -1 -5 13 -20 31 -34 32 -25 32 -25 29 -3 -2 12 -17 33 -33 46 l-29
23 28 -5 c15 -3 27 -9 27 -14 0 -5 5 -9 11 -9 5 0 7 5 3 12 -5 7 -3 8 5 3 8
-4 10 -17 6 -32 -4 -16 -2 -22 5 -18 5 3 10 13 10 21 0 8 5 14 10 14 6 0 10
-6 10 -14 0 -8 7 -17 16 -20 10 -4 13 -2 8 7 -3 6 9 -4 28 -23 27 -27 32 -37
22 -46 -10 -8 -5 -20 24 -52 46 -51 58 -54 31 -7 -12 19 -25 35 -31 35 -5 0
-8 8 -7 18 2 9 -3 28 -10 41 -11 20 -6 18 32 -13 25 -21 48 -43 51 -49 3 -9 5
-9 5 0 1 16 31 5 31 -12 0 -7 10 -11 24 -10 16 2 23 -1 20 -9 -3 -7 6 -18 19
-25 26 -14 63 -69 59 -88 -2 -7 4 -13 13 -13 8 0 15 -7 15 -15 0 -7 8 -19 18
-24 10 -6 12 -11 4 -11 -10 0 -10 -3 0 -14 7 -7 19 -13 28 -12 10 1 16 -10 18
-30 2 -22 9 -34 23 -37 10 -3 19 -12 19 -21 0 -9 7 -16 15 -16 8 0 15 -4 15
-10 0 -5 -5 -10 -12 -10 -6 0 -3 -7 8 -16 18 -15 18 -15 -5 -8 -17 4 -21 3
-16 -6 4 -7 2 -16 -5 -20 -9 -5 -9 -9 -1 -14 6 -4 11 -2 11 3 0 6 5 11 11 11
5 0 8 -4 5 -9 -4 -5 0 -11 6 -14 10 -3 10 -8 -1 -21 -12 -15 -12 -17 0 -14 8
2 13 -3 10 -12 -5 -25 -2 -100 5 -112 4 -7 3 -8 -4 -4 -7 4 -12 1 -12 -8 0 -9
4 -16 8 -16 5 0 9 -6 9 -12 0 -7 3 -25 6 -40 3 -15 1 -30 -4 -33 -8 -5 -14 16
-10 38 0 4 -4 7 -9 7 -6 0 -10 -15 -9 -32 1 -18 -1 -40 -5 -49 -4 -10 -2 -16
8 -16 8 0 12 6 8 15 -3 10 0 13 9 10 8 -3 14 -18 14 -36 -1 -18 3 -32 7 -32 4
0 8 -5 8 -11 0 -6 -7 -8 -16 -5 -13 5 -15 -1 -11 -39 3 -36 1 -45 -12 -45 -9
0 -24 -7 -34 -15 -18 -13 -18 -17 2 -120 23 -119 26 -179 10 -275 -12 -77 -17
-136 -23 -289 -3 -70 -9 -117 -16 -121 -7 -4 -11 -10 -11 -14 3 -20 -20 -105
-30 -112 -4 -2 -6 -11 -2 -19 3 -8 0 -15 -5 -15 -6 0 -13 -9 -17 -20 -10 -32
-82 -103 -95 -95 -9 5 -10 1 -5 -14 6 -19 -2 -26 -27 -22 -4 0 -4 -7 -1 -17 3
-9 3 -14 -1 -11 -4 4 -25 -12 -46 -35 -22 -22 -40 -35 -40 -28 0 6 5 12 11 12
5 0 8 4 4 9 -3 5 -1 13 5 16 8 5 8 11 0 20 -8 9 -7 17 2 26 14 15 23 49 13 49
-8 0 -28 -52 -27 -72 0 -10 -6 -18 -14 -18 -10 0 -13 -6 -10 -17 5 -16 -34
-73 -49 -73 -4 0 -13 -7 -22 -16 -9 -8 -21 -13 -28 -10 -7 2 -23 -5 -35 -16
-11 -11 -31 -21 -43 -23 -12 -1 -30 -6 -41 -10 -16 -7 -17 -6 -7 13 8 15 8 22
1 22 -5 0 -10 -6 -10 -12 0 -9 -4 -8 -10 2 -5 8 -10 10 -10 5 0 -6 -9 -11 -21
-11 -14 0 -19 5 -16 18 3 11 1 15 -5 12 -5 -4 -7 -19 -4 -35 3 -16 1 -29 -4
-29 -6 0 -9 3 -8 8 4 15 -14 52 -23 47 -5 -4 -9 -11 -9 -16 0 -6 4 -7 10 -4 5
3 10 2 10 -4 0 -5 -4 -13 -10 -16 -5 -3 -10 -1 -10 4 0 15 -33 14 -48 -1 -9
-9 -12 -8 -12 6 0 9 5 14 10 11 6 -3 10 -1 10 4 0 6 -7 11 -15 11 -8 0 -15 -4
-15 -10 0 -14 -52 7 -69 28 -13 16 -13 16 -8 0 8 -22 -11 -24 -19 -3 -4 8 -13
15 -21 15 -12 0 -13 3 -3 15 6 8 10 20 7 27 -4 9 -6 8 -6 -3 -1 -9 -8 -16 -16
-16 -8 0 -12 4 -9 9 3 4 0 8 -6 8 -6 0 -8 5 -5 10 4 6 -5 10 -20 10 -15 0 -24
4 -20 10 4 6 2 9 -2 8 -13 -4 -73 54 -73 69 0 7 -6 13 -14 13 -8 0 -16 7 -20
15 -3 8 -13 15 -21 15 -9 0 -14 4 -11 9 4 5 -5 22 -18 38 -18 21 -23 37 -19
53 l6 24 -22 -21 -23 -22 33 -42 c46 -57 159 -180 159 -172 0 3 15 -10 33 -29
51 -54 106 -86 186 -107 144 -38 292 -5 416 93 71 56 225 213 225 230 0 8 8
22 17 32 28 28 73 169 88 277 6 44 8 47 33 45 76 -5 114 60 146 251 25 147 17
171 -10 31 -31 -161 -49 -215 -81 -240 -28 -22 -70 -36 -79 -27 -3 3 2 79 11
169 18 166 20 231 10 304 -5 38 -3 44 26 64 17 13 45 26 63 30 29 8 30 8 5 9
-15 1 -30 9 -34 19 -4 9 -9 91 -10 182 -4 264 -16 393 -42 450 -16 34 -65 111
-102 160 -11 14 -35 51 -55 83 -23 37 -52 67 -79 83 -174 105 -292 167 -349
186 -38 12 -68 27 -68 32 0 6 -4 4 -10 -4 -7 -12 -12 -12 -29 4 -20 18 -116
28 -186 19z m890 -1153 c-3 -5 -1 -11 5 -15 15 -9 12 -30 -9 -54 -15 -18 -20
-19 -30 -7 -6 7 -9 20 -5 29 3 8 1 18 -5 22 -6 3 -11 13 -11 21 0 8 4 13 9 9
5 -3 12 -1 16 4 3 6 12 8 20 5 8 -4 13 -10 10 -14z"/>
<path d="M1976 4451 c-13 -5 -16 -10 -9 -14 7 -4 14 -3 18 3 4 6 11 8 16 5 5
-4 9 -1 9 4 0 12 -7 13 -34 2z"/>
<path d="M1680 4435 c0 -7 5 -17 12 -21 6 -4 8 -3 4 4 -3 5 -1 12 6 14 8 3 6
7 -5 11 -11 4 -17 1 -17 -8z"/>
<path d="M1805 4419 c6 -9 3 -10 -10 -5 -15 5 -16 4 -5 -9 9 -11 15 -12 20 -5
4 6 15 8 26 4 24 -9 16 -1 -15 16 -19 10 -22 10 -16 -1z"/>
<path d="M1620 4400 c0 -5 7 -10 15 -10 8 0 15 5 15 10 0 6 -7 10 -15 10 -8 0
-15 -4 -15 -10z"/>
<path d="M1701 4401 c-11 -7 -5 -13 24 -25 39 -17 65 -15 65 3 0 13 -8 17 -45
25 -16 3 -36 2 -44 -3z"/>
<path d="M2132 4370 c1 -16 4 -30 7 -31 3 0 17 -2 31 -5 l25 -4 -25 21 c-14
12 -24 28 -22 35 2 8 -2 14 -7 14 -5 0 -9 -13 -9 -30z"/>
<path d="M1811 4372 c-11 -21 -9 -24 21 -36 48 -20 86 -29 69 -18 -11 8 -11
11 0 16 8 3 4 3 -8 0 -22 -5 -60 13 -61 29 -2 26 -10 29 -21 9z"/>
<path d="M2090 4355 c7 -8 17 -15 22 -15 6 0 5 7 -2 15 -7 8 -17 15 -22 15 -6
0 -5 -7 2 -15z"/>
<path d="M1680 4350 c-9 -6 -10 -10 -3 -10 6 0 19 -3 27 -6 12 -5 15 -2 10 10
-7 18 -13 20 -34 6z"/>
<path d="M1703 4305 c7 -7 16 -11 20 -8 5 3 20 -1 34 -8 20 -11 26 -11 33 1
11 17 11 17 -52 23 -37 3 -44 2 -35 -8z"/>
<path d="M1810 4286 c0 -5 78 -56 85 -56 4 0 3 5 -1 12 -5 7 -3 8 7 2 8 -5 21
-7 30 -6 9 2 16 -4 16 -13 0 -8 -4 -15 -9 -15 -4 0 -8 -6 -8 -14 0 -10 -7 -12
-22 -8 -14 3 -19 2 -14 -6 17 -27 74 3 63 33 -4 9 2 15 16 18 22 4 22 4 -1 6
-15 1 -21 5 -16 13 5 8 2 9 -10 5 -19 -7 -93 10 -110 25 -10 8 -26 11 -26 4z"/>
<path d="M1636 4271 c-3 -5 5 -8 19 -7 14 0 25 4 25 9 0 10 -38 9 -44 -2z"/>
<path d="M2240 4268 c0 -10 -8 -18 -17 -18 -10 0 1 -9 23 -19 23 -11 47 -27
52 -37 6 -11 14 -15 18 -11 14 14 -32 62 -57 59 -15 -1 -19 1 -12 6 8 5 9 13
3 22 -8 13 -10 12 -10 -2z"/>
<path d="M1780 4263 c0 -15 38 -34 46 -22 7 13 5 15 -23 23 -13 4 -23 4 -23
-1z"/>
<path d="M2050 4261 c0 -5 -10 -12 -22 -14 -13 -2 -7 -4 13 -3 25 1 35 5 32
14 -6 14 -23 16 -23 3z"/>
<path d="M2340 4263 c0 -17 19 -35 29 -29 6 4 18 1 26 -8 21 -21 19 -27 -10
-22 -28 5 -32 -5 -10 -24 13 -11 15 -10 9 6 -4 14 -1 13 15 -6 l21 -25 0 32
c0 37 -34 83 -62 83 -10 0 -18 -3 -18 -7z"/>
<path d="M1420 4247 c-22 -9 -23 -11 -6 -14 10 -3 23 0 29 6 16 16 5 20 -23 8z"/>
<path d="M1723 4238 c-3 -32 15 -48 51 -48 18 0 37 -5 43 -11 13 -13 54 -8 54
6 0 5 -5 11 -13 13 -9 2 -8 0 2 -7 12 -9 11 -11 -7 -11 -12 0 -26 6 -30 13 -4
6 -14 12 -20 13 -7 1 -24 2 -38 3 -14 0 -24 4 -24 9 1 4 1 15 0 25 -2 25 -16
21 -18 -5z"/>
<path d="M2149 4222 c-13 -5 -4 -13 32 -29 27 -12 47 -18 44 -12 -13 19 13 8
29 -13 15 -22 15 -21 1 10 -9 18 -20 30 -25 27 -6 -4 -10 -2 -10 3 0 5 -6 9
-12 9 -7 0 -20 3 -28 6 -8 3 -22 3 -31 -1z"/>
<path d="M2018 4214 c-12 -11 1 -24 25 -25 21 0 21 -1 -3 -12 l-25 -11 27 -3
c15 -3 36 1 48 7 23 12 27 40 6 40 -7 0 -26 3 -42 6 -16 3 -32 2 -36 -2z"/>
<path d="M1410 4206 c0 -8 51 -13 56 -5 3 5 -9 9 -25 9 -17 0 -31 -2 -31 -4z"/>
<path d="M1486 4185 c-11 -8 -18 -17 -15 -19 2 -2 15 4 28 15 27 22 15 26 -13
4z"/>
<path d="M1962 4182 c-8 -6 -2 -9 17 -9 17 0 28 4 25 9 -7 10 -25 10 -42 0z"/>
<path d="M2125 4180 c-3 -5 3 -10 14 -10 12 0 21 5 21 10 0 6 -6 10 -14 10 -8
0 -18 -4 -21 -10z"/>
<path d="M1784 4164 c18 -17 37 -18 30 -1 -2 7 -13 13 -24 14 -18 2 -18 0 -6
-13z"/>
<path d="M1710 4154 c-19 -6 -36 -16 -38 -22 -2 -6 -20 -16 -40 -23 -20 -7
-45 -21 -54 -31 -9 -11 -22 -17 -27 -14 -6 4 -22 -1 -36 -10 -14 -9 -25 -12
-25 -6 0 6 7 15 16 20 15 8 15 10 0 15 -9 4 -16 3 -16 -2 0 -4 -18 -29 -41
-55 -22 -25 -38 -52 -36 -58 4 -8 6 -7 6 4 1 9 10 19 20 23 10 3 21 15 24 25
7 27 26 25 24 -3 -3 -30 -46 -71 -77 -73 -17 -1 -25 -7 -24 -18 1 -9 -2 -16
-7 -16 -5 0 -9 -13 -9 -29 0 -16 -6 -31 -15 -35 -8 -3 -15 -12 -15 -21 0 -8
-7 -15 -16 -15 -8 0 -13 -4 -10 -9 4 -5 2 -11 -3 -13 -12 -5 -24 -78 -12 -78
5 0 13 10 16 23 12 40 36 71 45 57 9 -15 53 97 46 117 -3 7 -1 13 4 13 6 0 10
-5 10 -11 0 -6 33 24 73 65 41 42 76 74 79 71 3 -4 23 6 44 21 22 14 49 30 62
35 13 5 21 13 18 17 -2 4 5 14 16 21 17 11 20 11 16 -1 -4 -9 6 -13 36 -15
l41 -1 -29 12 c-18 8 -24 15 -16 18 11 3 11 5 -1 9 -7 3 -30 0 -49 -7z m-180
-119 c-13 -14 -28 -25 -34 -25 -13 0 35 49 48 49 5 1 -1 -10 -14 -24z"/>
<path d="M1540 4151 c0 -5 6 -12 13 -14 25 -11 -18 -26 -58 -22 l-40 5 35 -9
c48 -12 85 -9 85 8 0 8 9 18 20 23 16 6 14 7 -7 3 -16 -3 -28 -1 -28 5 0 5 -4
10 -10 10 -5 0 -10 -4 -10 -9z"/>
<path d="M2380 4148 c0 -9 7 -19 16 -22 25 -10 27 -1 4 19 -17 15 -20 16 -20
3z"/>
<path d="M1285 4130 c-11 -12 -13 -20 -6 -20 7 0 9 -4 6 -10 -3 -5 -2 -10 4
-10 11 0 41 28 41 38 0 3 -5 1 -12 -6 -19 -19 -30 -14 -18 8 6 11 9 20 7 20
-2 0 -12 -9 -22 -20z"/>
<path d="M1395 4141 c-18 -7 -18 -8 5 -12 32 -6 60 0 60 12 0 11 -37 11 -65 0z"/>
<path d="M2095 4140 c3 -5 -3 -10 -14 -10 -12 0 -21 -3 -21 -7 0 -5 27 -8 60
-9 40 -1 58 2 54 10 -3 6 0 4 8 -4 13 -15 42 -20 53 -9 12 13 64 -7 106 -41
75 -60 149 -143 149 -167 0 -7 6 -13 13 -13 12 0 18 -28 21 -97 1 -11 5 -19
10 -16 4 3 5 -3 2 -14 -4 -12 -1 -25 8 -32 16 -13 36 -7 36 11 0 7 -5 6 -14
-1 -11 -9 -16 -9 -22 0 -4 7 -2 15 4 17 7 2 10 8 6 13 -3 5 0 9 5 9 6 0 11 7
11 15 0 8 -3 15 -7 15 -5 0 -9 13 -10 29 -2 28 -37 106 -58 127 -5 5 -18 13
-29 17 -12 5 -17 14 -13 27 3 11 0 23 -6 27 -11 7 -16 9 -35 12 -5 0 -14 12
-20 26 -7 15 -20 25 -32 25 -11 0 -20 5 -20 11 0 5 -5 7 -10 4 -6 -4 -16 -3
-23 3 -35 27 -162 39 -180 17 -6 -6 -10 -6 -14 3 -2 6 -9 12 -14 12 -6 0 -7
-4 -4 -10z m130 -10 c3 -5 -1 -10 -9 -10 -8 0 -18 5 -21 10 -3 6 1 10 9 10 8
0 18 -4 21 -10z"/>
<path d="M1817 4133 c-4 -5 -1 -10 6 -11 81 -8 211 -13 207 -9 -3 3 -36 8 -75
11 -38 3 -84 8 -101 12 -17 3 -34 2 -37 -3z"/>
<path d="M1333 4073 c-13 -2 -23 -8 -23 -13 0 -5 14 -4 30 1 27 10 42 21 23
18 -5 -1 -18 -4 -30 -6z"/>
<path d="M2106 4038 l-17 -33 20 24 c18 20 27 41 18 41 -1 0 -11 -15 -21 -32z"/>
<path d="M1387 4045 c11 -21 7 -45 -8 -45 -4 0 -6 6 -3 14 4 11 -1 11 -29 -2
-33 -16 -42 -47 -10 -35 11 4 14 2 9 -5 -4 -8 -2 -10 8 -6 8 3 12 12 9 20 -3
9 0 12 9 9 9 -4 26 8 44 32 15 21 20 32 11 24 -14 -11 -20 -11 -34 0 -15 13
-15 12 -6 -6z"/>
<path d="M1307 3913 c-12 -11 -7 -24 6 -17 6 5 -1 -9 -16 -29 -15 -20 -26 -41
-22 -46 3 -5 0 -11 -7 -13 -8 -3 -7 -6 4 -10 10 -4 19 1 25 15 22 46 36 82 39
95 2 13 -18 17 -29 5z"/>
<path d="M2520 3726 c0 -3 4 -16 10 -30 10 -27 43 -35 56 -14 5 8 0 9 -15 5
-17 -4 -24 0 -31 19 -8 21 -20 33 -20 20z"/>
<path d="M2530 3648 c0 -6 3 -8 7 -5 3 4 15 -1 26 -10 19 -17 20 -17 8 5 -12
23 -41 31 -41 10z"/>
<path d="M2597 3653 c-12 -11 -8 -23 8 -23 8 0 15 7 15 15 0 16 -12 20 -23 8z"/>
<path d="M2099 3605 c-1 -5 -1 -13 0 -17 0 -5 -6 -8 -14 -8 -9 0 -12 -6 -9
-15 6 -14 8 -13 19 2 7 10 11 21 9 25 -3 5 0 8 5 8 14 0 14 -17 1 -25 -5 -3
-10 -11 -10 -16 0 -6 12 -1 27 11 26 20 28 20 34 3 8 -22 0 -40 -11 -24 -5 9
-10 8 -18 -2 -20 -23 24 -14 51 11 27 26 47 28 47 7 0 -8 -9 -15 -20 -15 -11
0 -20 -5 -20 -11 0 -6 7 -8 16 -5 9 3 25 6 35 6 11 0 18 4 15 8 -2 4 4 8 15 8
10 0 19 -5 20 -11 0 -5 5 1 10 14 7 19 12 22 21 13 7 -7 27 -12 45 -12 20 0
36 -6 39 -14 3 -8 18 -18 33 -21 22 -5 35 -19 56 -60 15 -30 29 -55 30 -55 9
0 -16 74 -34 104 -28 45 -123 98 -159 89 -14 -3 -23 -2 -19 3 3 6 -39 10 -104
10 -67 0 -109 -4 -110 -11z"/>
<path d="M2583 3605 c-11 -18 3 -45 23 -45 5 0 3 5 -4 12 -9 9 -7 15 6 25 9 8
12 12 5 9 -6 -4 -13 -1 -15 6 -3 8 -8 6 -15 -7z"/>
<path d="M2027 3558 c-11 -20 -13 -27 -4 -20 18 15 30 3 16 -15 -13 -15 -1
-17 19 -4 11 7 11 11 -2 24 -9 8 -13 23 -10 31 10 26 0 18 -19 -16z"/>
<path d="M1600 3568 c0 -5 -10 -8 -22 -8 -17 0 -19 -3 -10 -9 10 -6 2 -10 -25
-15 -57 -10 -73 -16 -73 -27 0 -6 5 -7 10 -4 6 3 10 2 10 -3 0 -16 -13 -22
-27 -11 -10 9 -13 8 -13 -1 0 -8 -3 -10 -6 -7 -4 4 -1 13 6 22 19 23 -6 19
-32 -5 -12 -11 -16 -20 -9 -20 7 0 9 -5 6 -10 -4 -6 -14 -9 -23 -8 -10 2 -18
-5 -20 -17 -3 -11 -10 -24 -17 -30 -15 -11 -25 -62 -18 -82 3 -8 15 6 29 33
13 26 32 55 42 64 17 16 132 50 169 50 27 0 47 16 38 30 -6 9 -9 9 -16 -1 -7
-11 -9 -11 -9 -1 0 7 6 15 14 18 17 7 88 -25 81 -36 -2 -4 10 -5 27 -1 38 8
47 42 18 71 -16 16 -31 19 -75 17 -30 -1 -55 -5 -55 -9z m136 -45 c1 -26 -11
-22 -27 8 -9 18 -8 20 8 17 10 -2 18 -12 19 -25z m-36 -3 c6 -11 7 -20 3 -20
-15 1 -43 27 -36 33 11 12 22 8 33 -13z"/>
<path d="M2626 3534 c-5 -14 -9 -14 -23 -3 -15 12 -16 12 -9 -6 5 -11 11 -30
13 -42 7 -30 21 -30 16 0 -3 14 2 31 11 40 9 9 12 18 7 21 -5 3 -12 -1 -15
-10z"/>
<path d="M2172 3473 c-18 -9 -42 -27 -53 -41 -11 -15 -30 -25 -46 -26 -14 -1
-28 -7 -31 -15 -3 -10 2 -11 19 -6 l22 7 -22 -37 c-30 -51 -19 -56 21 -9 18
21 47 53 65 71 18 18 29 33 25 33 -18 1 26 20 46 20 12 0 22 5 22 10 0 15 -30
12 -68 -7z"/>
<path d="M2294 3465 c27 -8 62 -23 77 -34 30 -23 54 -28 43 -10 -11 19 -107
59 -139 58 -25 -1 -22 -3 19 -14z"/>
<path d="M1605 3425 l-40 -14 46 5 c44 5 47 3 109 -56 36 -33 68 -60 72 -60
18 0 16 20 -5 38 -66 61 -92 82 -102 82 -5 0 -3 5 5 10 23 15 -37 11 -85 -5z"/>
<path d="M2195 3402 c-16 -2 -38 -12 -47 -22 -27 -29 -21 -34 11 -10 l30 21
-6 -34 c-3 -21 0 -37 9 -44 20 -16 99 -21 133 -7 17 6 38 10 47 9 20 -4 32 23
18 40 -30 36 -117 57 -195 47z m176 -58 c9 -11 7 -14 -10 -14 -12 0 -33 -7
-47 -16 -26 -18 -46 -12 -26 8 7 7 12 22 12 34 0 21 3 22 29 13 17 -6 35 -17
42 -25z m-121 11 c0 -8 -4 -15 -10 -15 -5 0 -10 7 -10 15 0 8 5 15 10 15 6 0
10 -7 10 -15z m-40 -4 c0 -5 12 -14 28 -19 l27 -10 -31 -1 c-24 -1 -33 4 -37
19 -3 11 -1 20 4 20 5 0 9 -4 9 -9z"/>
<path d="M1470 3370 c-19 -16 -30 -29 -25 -29 6 0 26 13 45 29 19 17 30 30 24
30 -5 0 -25 -13 -44 -30z"/>
<path d="M1790 3378 c0 -9 5 -20 11 -23 17 -11 18 -2 3 19 -12 17 -14 17 -14
4z"/>
<path d="M1523 3334 c-29 -14 -53 -30 -53 -36 0 -5 -10 -18 -22 -29 l-23 -19
25 9 c17 6 37 4 63 -6 21 -9 41 -13 44 -9 4 3 -1 6 -9 6 -9 0 -18 7 -22 15 -3
8 -12 15 -21 15 -13 0 -12 3 2 20 20 23 43 26 43 7 0 -27 37 -48 77 -45 35 3
38 6 41 36 3 34 11 38 45 21 21 -10 21 -9 -2 10 -13 12 -33 21 -45 21 -11 0
-37 2 -56 5 -25 4 -50 -2 -87 -21z m104 -30 c-9 -9 -28 6 -21 18 4 6 10 6 17
-1 6 -6 8 -13 4 -17z m14 -15 c-15 -14 -28 -18 -39 -13 -15 6 -14 8 5 11 12 2
27 11 34 19 6 8 14 12 17 9 3 -3 -4 -15 -17 -26z"/>
<path d="M2110 3328 c0 -11 -8 -18 -20 -18 -11 0 -20 -4 -20 -9 0 -5 17 -9 38
-8 20 1 45 -3 55 -7 11 -5 17 -4 17 3 0 6 -12 17 -27 24 -16 6 -31 16 -35 22
-5 6 -8 3 -8 -7z"/>
<path d="M1740 3300 c0 -6 -3 -9 -8 -6 -9 5 -31 -11 -52 -39 -15 -19 -15 -19
12 -2 15 9 42 18 60 18 18 1 25 3 15 6 -9 2 -15 8 -12 13 3 5 1 11 -5 15 -5 3
-10 1 -10 -5z"/>
<path d="M2781 3280 c0 -8 4 -24 9 -35 5 -13 9 -14 9 -5 0 8 -4 24 -9 35 -5
13 -9 14 -9 5z"/>
<path d="M2758 3158 c-6 -127 2 -157 18 -63 9 49 9 84 2 118 -5 26 -11 47 -12
47 -2 0 -6 -46 -8 -102z"/>
<path d="M1682 3168 c3 -7 15 -14 29 -16 24 -4 24 -3 4 12 -24 19 -38 20 -33
4z"/>
<path d="M2684 2974 c-9 -21 -22 -44 -30 -52 -10 -9 -12 -18 -6 -24 14 -14 68
42 75 80 9 46 -19 43 -39 -4z"/>
<path d="M1991 2889 c-37 -14 -22 -18 47 -12 40 4 59 9 50 14 -17 11 -67 10
-97 -2z"/>
<path d="M1740 2870 c0 -5 15 -9 34 -7 19 1 32 5 29 10 -6 11 -63 9 -63 -3z"/>
<path d="M2007 2819 c-20 -12 -14 -31 8 -23 14 6 29 34 17 34 -4 0 -15 -5 -25
-11z"/>
<path d="M1802 2798 c5 -15 48 -24 48 -10 0 10 -23 22 -42 22 -5 0 -8 -6 -6
-12z"/>
<path d="M2106 2784 c-3 -9 -13 -14 -21 -10 -8 3 -17 1 -20 -3 -3 -5 3 -12 12
-15 16 -7 43 16 43 36 0 13 -7 9 -14 -8z"/>
<path d="M1783 2783 c3 -5 2 -15 -3 -23 -7 -12 -11 -12 -27 1 -16 13 -17 12
-5 -2 11 -14 9 -17 -10 -23 -34 -9 -45 -7 -28 4 8 5 10 10 4 10 -6 0 -17 -7
-24 -15 -7 -8 -9 -15 -5 -15 4 0 2 -7 -5 -15 -7 -9 -10 -18 -6 -22 3 -3 6 -1
6 5 0 6 14 18 32 26 32 16 67 13 81 -8 5 -8 10 -7 16 3 5 8 16 11 25 8 9 -4
16 -2 16 3 0 10 -7 12 -40 14 -8 1 -16 10 -19 21 -3 17 -1 18 13 6 9 -7 16 -9
16 -5 0 5 -9 15 -21 22 -12 8 -19 10 -16 5z"/>
<path d="M1954 2775 c-4 -8 -11 -12 -17 -8 -7 4 -8 0 -4 -11 4 -10 7 -20 7
-22 0 -2 10 -4 23 -3 12 0 17 3 11 5 -7 3 -10 14 -7 24 3 11 9 17 14 14 5 -3
9 0 9 5 0 17 -30 13 -36 -4z"/>
<path d="M2224 2755 c11 -8 22 -12 25 -9 6 6 -19 24 -34 24 -5 -1 -1 -7 9 -15z"/>
<path d="M1995 2749 c-10 -15 1 -23 20 -15 9 3 13 10 10 16 -8 13 -22 13 -30
-1z"/>
<path d="M2043 2735 c0 -8 6 -15 13 -15 8 0 11 6 8 15 -4 8 -9 15 -13 15 -4 0
-8 -7 -8 -15z"/>
<path d="M2158 2744 c-3 -2 -20 -6 -38 -9 -18 -2 -35 -6 -38 -10 -3 -3 14 -3
37 0 26 3 49 1 57 -6 10 -8 14 -8 14 0 0 7 8 8 28 0 21 -8 24 -8 15 2 -7 7
-20 13 -30 14 -10 0 -23 4 -29 8 -6 3 -13 4 -16 1z"/>
<path d="M1614 2705 c1 -28 6 -31 24 -13 8 8 9 15 1 25 -17 20 -27 16 -25 -12z"/>
<path d="M1890 2715 c0 -10 10 -15 29 -15 34 0 49 15 25 24 -28 11 -54 6 -54
-9z"/>
<path d="M2310 2659 c0 -7 -7 -20 -16 -30 -15 -17 -15 -21 2 -58 20 -42 40
-57 29 -21 -4 12 -2 20 5 20 6 0 4 10 -5 24 -13 19 -14 29 -6 45 7 13 8 22 1
26 -5 3 -10 1 -10 -6z"/>
<path d="M2213 2638 c-14 -19 -24 -48 -15 -48 4 0 13 9 20 20 7 11 21 20 33
20 11 0 17 5 14 10 -9 14 -41 12 -52 -2z"/>
<path d="M1999 2618 c-19 -3 -101 -5 -184 -3 -82 2 -157 -1 -166 -6 -12 -6
-20 -5 -26 3 -5 8 -10 -4 -14 -32 -5 -32 -3 -49 7 -59 18 -19 25 -11 31 38 6
43 26 54 51 29 10 -10 14 -10 21 0 5 9 40 12 127 11 65 -1 147 1 182 5 48 4
64 2 68 -8 3 -9 13 -12 27 -8 22 6 21 6 -3 14 -19 6 -15 7 18 5 43 -3 56 7 24
18 -23 7 -116 3 -163 -7z"/>
<path d="M1724 2575 c-7 -16 11 -35 33 -36 5 0 15 -6 23 -14 20 -17 72 -27 87
-17 8 5 -8 14 -44 25 -31 10 -64 27 -74 39 -17 19 -19 19 -25 3z"/>
<path d="M2015 2571 c-6 -11 9 -23 19 -14 9 9 7 23 -3 23 -6 0 -12 -4 -16 -9z"/>
<path d="M2122 2567 c-26 -15 -20 -27 9 -20 10 3 19 12 19 19 0 17 1 17 -28 1z"/>
<path d="M2084 2480 c-13 -13 -51 -22 -86 -21 -17 1 -28 -5 -31 -16 -4 -17 -5
-17 -6 0 -1 19 -21 24 -21 5 0 -8 -3 -9 -8 -3 -4 6 -28 11 -53 12 -26 0 -56 6
-69 13 -17 9 -21 9 -18 0 9 -29 208 -64 223 -39 4 5 11 7 16 4 5 -4 9 -1 9 4
0 6 3 10 8 9 11 -4 72 26 72 34 0 11 -24 10 -36 -2z"/>
<path d="M2320 2461 c0 -5 -8 -11 -17 -13 -16 -3 -15 -5 2 -9 16 -5 21 -1 22
12 1 11 0 19 -3 19 -2 0 -4 -4 -4 -9z"/>
<path d="M2530 2276 c0 -131 1 -135 26 -166 15 -17 47 -42 73 -54 25 -13 54
-33 63 -43 30 -33 34 -173 6 -173 -10 0 -7 31 7 75 6 19 6 19 -8 2 -8 -9 -17
-42 -21 -73 -3 -31 -13 -68 -20 -82 -37 -69 -197 -190 -348 -262 -122 -58
-222 -82 -353 -84 -157 -2 -207 12 -276 77 -56 52 -56 52 -64 127 -10 103 -9
134 8 166 10 19 12 36 6 53 -4 15 -13 53 -20 86 -10 52 -13 57 -24 42 -16 -22
-260 -130 -410 -182 -101 -35 -227 -88 -315 -133 -41 -21 -162 -174 -198 -251
-28 -61 -66 -266 -81 -443 -6 -62 -17 -162 -25 -222 -9 -61 -14 -111 -12 -113
1 -2 855 -2 1897 -1 1525 3 1882 5 1830 15 -42 8 -70 9 -81 3 -16 -8 -19 -5
-24 28 -3 20 -4 163 -4 318 l2 281 -48 72 c-26 39 -62 82 -79 95 -77 57 -459
242 -692 336 -66 26 -147 60 -180 75 -33 15 -91 40 -130 56 -38 17 -104 50
-146 75 -48 28 -97 48 -130 54 -71 11 -164 54 -183 82 -19 30 -25 71 -27 191
-2 149 -19 126 -19 -27z m302 -310 c4 -6 8 -33 8 -59 0 -27 4 -46 9 -43 4 3 7
26 5 51 -4 42 -3 45 14 36 10 -5 24 -17 32 -25 7 -9 16 -16 21 -16 4 0 37 -13
72 -30 36 -16 70 -30 76 -30 6 0 11 -4 11 -10 0 -5 9 -10 20 -10 23 0 60 -19
76 -39 6 -8 16 -11 22 -7 10 6 54 -10 114 -40 15 -8 30 -13 35 -12 10 2 158
-66 193 -90 14 -9 30 -17 35 -17 12 -1 44 -14 67 -26 10 -5 24 -9 32 -9 8 0
21 -6 28 -13 7 -7 29 -19 48 -27 19 -7 42 -19 51 -27 8 -7 23 -13 32 -13 9 0
17 -5 17 -11 0 -5 4 -8 9 -4 5 3 15 -1 23 -8 14 -14 50 -35 106 -61 l32 -15
-22 -24 c-68 -72 -154 -184 -150 -195 3 -10 14 -3 33 20 46 52 49 56 49 69 0
6 7 9 15 6 17 -7 32 12 17 22 -16 10 52 81 77 81 18 0 29 -16 32 -45 0 -5 7
-14 15 -18 8 -4 14 -15 14 -23 0 -9 5 -12 12 -8 7 5 9 2 5 -9 -3 -9 -2 -17 3
-19 11 -4 22 -86 20 -150 -1 -27 -1 -60 -1 -75 2 -143 1 -342 -2 -357 -2 -11
-12 -21 -23 -23 -40 -7 -335 -10 -339 -3 -3 4 17 41 44 81 69 106 131 222 131
247 0 11 8 26 18 31 9 6 14 11 10 11 -3 0 7 25 22 55 15 30 24 57 20 60 -10 6
-14 0 -51 -70 -14 -27 -51 -98 -81 -156 -30 -58 -68 -123 -84 -146 -16 -22
-38 -58 -48 -81 l-19 -41 -61 6 c-33 3 -63 7 -65 9 -2 2 7 45 19 95 25 102
144 364 160 354 5 -3 7 0 4 8 -3 8 2 20 11 27 8 7 15 18 15 24 -1 27 -86 -100
-110 -164 -9 -25 -31 -75 -48 -111 -18 -36 -40 -101 -49 -145 -9 -43 -21 -85
-26 -91 -11 -15 -63 -17 -72 -3 -4 6 -11 8 -16 5 -5 -4 -12 1 -16 11 -6 15 -7
15 -14 -4 -6 -17 -17 -22 -44 -22 -19 0 -35 5 -35 11 0 5 -5 7 -12 3 -13 -8
-2555 -7 -2569 1 -5 4 -13 3 -19 0 -21 -13 -56 -15 -82 -4 -19 8 -32 8 -46 0
-14 -8 -29 -8 -47 -1 -27 10 -27 11 -21 84 3 41 8 80 11 88 4 11 20 154 30
268 1 19 6 58 11 85 4 28 7 55 6 62 -2 6 2 14 8 18 5 3 10 19 10 36 0 16 4 37
9 47 5 9 19 37 31 61 38 79 160 218 199 228 14 3 53 19 86 36 33 16 103 45
155 63 163 56 203 71 304 118 115 54 131 56 122 21 -4 -17 -2 -24 6 -23 17 4
22 -30 9 -71 -7 -20 -13 -47 -13 -61 -3 -47 15 -170 24 -170 5 0 6 -5 3 -10
-8 -13 52 -90 71 -90 8 0 14 -4 14 -10 0 -23 185 -80 211 -64 3 2 39 4 80 4
41 1 92 7 114 13 22 6 48 9 58 8 9 -1 17 2 17 7 0 5 12 12 28 15 47 9 55 12
125 45 37 17 71 32 75 34 4 1 16 10 26 20 11 10 23 18 27 18 4 0 34 17 66 39
76 50 150 126 172 176 52 116 46 95 55 176 l8 67 37 -10 c20 -6 39 -15 43 -22z"/>
<path d="M3050 1780 c29 -23 48 -26 31 -6 -6 8 -22 16 -34 20 -21 5 -21 4 3
-14z"/>
<path d="M3372 1655 c3 -3 12 -8 20 -9 37 -8 74 -20 85 -28 7 -5 14 -5 18 2 3
5 -4 14 -17 19 -32 12 -114 25 -106 16z"/>
<path d="M3570 1586 c0 -3 17 -10 38 -17 38 -12 162 -71 241 -115 24 -13 50
-24 58 -24 7 0 13 -4 13 -9 0 -5 8 -11 18 -15 9 -3 23 -9 31 -12 9 -4 11 -2 7
5 -4 6 -50 32 -102 57 -53 25 -111 56 -130 69 -44 30 -174 75 -174 61z"/>
<path d="M3743 1285 c-21 -24 -19 -33 3 -17 9 6 27 42 21 42 -1 0 -12 -12 -24
-25z"/>
<path d="M3697 1238 c-4 -13 -16 -34 -28 -47 -17 -18 -19 -25 -9 -34 10 -9 11
-9 6 0 -3 6 0 15 8 20 8 4 15 13 16 18 1 6 7 9 12 7 6 -2 8 4 5 12 -3 8 -1 17
6 19 9 3 9 8 1 16 -9 10 -13 7 -17 -11z"/>
<path d="M3881 1191 c-7 -5 -12 -13 -10 -19 2 -6 14 -2 28 9 23 19 9 27 -18
10z"/>
<path d="M4089 1169 c-4 -28 -1 -35 13 -35 10 0 18 1 18 2 0 1 -6 16 -14 34
l-13 33 -4 -34z"/>
<path d="M2379 2398 c-6 -19 -6 -39 0 -42 4 -3 8 6 9 20 1 13 0 24 -3 24 -3 0
-5 -1 -6 -2z"/>
<path d="M2250 2368 c0 -12 7 -18 23 -17 15 0 17 2 7 6 -8 3 -18 11 -22 17 -5
7 -8 4 -8 -6z"/>
<path d="M2193 2343 c-7 -2 -13 -9 -13 -15 0 -7 5 -7 13 1 8 6 17 8 20 4 4 -3
7 -1 7 5 0 13 -7 14 -27 5z"/>
<path d="M1755 2320 c-8 -25 5 -52 22 -46 12 5 13 -1 8 -27 -7 -32 -7 -32 10
-9 13 18 14 26 5 37 -6 8 -9 23 -6 33 5 14 1 21 -13 25 -14 3 -22 -1 -26 -13z
m29 -15 c-4 -8 -10 -15 -15 -15 -5 0 -9 7 -9 15 0 8 7 15 15 15 9 0 12 -6 9
-15z"/>
<path d="M1633 2316 c-9 -11 -8 -19 7 -36 12 -14 21 -17 25 -10 4 6 14 9 24 6
14 -5 14 -4 -1 7 -10 8 -17 16 -15 18 1 2 -3 -2 -10 -9 -14 -16 -26 -1 -17 22
7 19 3 20 -13 2z"/>
<path d="M2100 2286 c0 -8 5 -18 10 -21 6 -3 10 1 10 9 0 8 -4 18 -10 21 -5 3
-10 -1 -10 -9z"/>
<path d="M1718 2273 c-4 -14 0 -24 8 -27 15 -6 16 -1 5 28 -7 19 -8 19 -13 -1z"/>
<path d="M2180 2285 c0 -8 27 -35 34 -35 14 0 4 20 -14 30 -11 6 -20 8 -20 5z"/>
<path d="M2130 2275 c0 -3 9 -14 20 -25 20 -20 20 -20 20 1 0 11 -4 17 -10 14
-5 -3 -10 -1 -10 4 0 6 -4 11 -10 11 -5 0 -10 -2 -10 -5z"/>
<path d="M1832 2257 c-12 -6 -22 -14 -22 -19 0 -13 16 -9 30 6 6 8 18 12 26 9
8 -3 14 -1 14 4 0 12 -20 12 -48 0z"/>
<path d="M1540 2251 c0 -4 11 -63 25 -129 14 -66 25 -124 25 -127 0 -3 5 -3
10 0 7 4 8 11 2 18 -5 7 -10 31 -9 54 0 24 -5 48 -10 55 -6 7 -11 20 -11 28
-2 42 -32 136 -32 101z"/>
<path d="M1977 2243 c-3 -5 -2 -15 2 -22 5 -7 11 -9 14 -4 3 5 2 15 -2 22 -5
7 -11 9 -14 4z"/>
<path d="M2224 2228 c-4 -7 -3 -8 4 -4 8 4 12 0 12 -11 0 -15 2 -15 9 -3 10
15 6 30 -9 30 -5 0 -12 -5 -16 -12z"/>
<path d="M1842 2222 c-10 -3 -9 -8 4 -23 9 -10 22 -19 28 -19 8 0 8 3 0 8 -7
4 -13 14 -15 23 -2 9 -10 14 -17 11z"/>
<path d="M2200 2185 c0 -8 7 -15 16 -15 14 0 14 3 4 15 -7 8 -14 15 -16 15 -2
0 -4 -7 -4 -15z"/>
<path d="M2027 2170 c-3 -11 -1 -23 4 -26 5 -3 9 6 9 20 0 31 -6 34 -13 6z"/>
<path d="M2080 2120 c0 -19 3 -21 12 -12 9 9 9 15 0 24 -9 9 -12 7 -12 -12z"/>
<path d="M2549 2046 c-9 -9 13 -126 23 -126 6 0 7 8 3 18 -4 9 -10 39 -14 65
-3 27 -9 46 -12 43z"/>
</g>
</svg>
