<svg xmlns="http://www.w3.org/2000/svg" xmlns:xlink="http://www.w3.org/1999/xlink" width="40" zoomAndPan="magnify" viewBox="0 0 30 30.000001" height="40" preserveAspectRatio="xMidYMid meet" version="1.0"><defs><clipPath id="52783392e7"><path d="M 1.382812 0 L 28.960938 0 L 28.960938 29 L 1.382812 29 Z M 1.382812 0 " clip-rule="nonzero"/></clipPath><clipPath id="074e368ac0"><path d="M 14 0 L 28.960938 0 L 28.960938 29 L 14 29 Z M 14 0 " clip-rule="nonzero"/></clipPath></defs><g clip-path="url(#52783392e7)"><path fill="#e23237" d="M 1.382812 4.867188 L 14.980469 0.0898438 L 28.941406 4.792969 L 26.683594 22.550781 L 14.980469 28.941406 L 3.46875 22.632812 Z M 1.382812 4.867188 " fill-opacity="1" fill-rule="nonzero"/></g><g clip-path="url(#074e368ac0)"><path fill="#b52e31" d="M 28.941406 4.792969 L 14.980469 0.0898438 L 14.980469 28.941406 L 26.683594 22.550781 Z M 28.941406 4.792969 " fill-opacity="1" fill-rule="nonzero"/></g><path fill="#ffffff" d="M 15.003906 3.460938 L 6.527344 22.070312 L 9.691406 22.007812 L 11.398438 17.804688 L 18.976562 17.804688 L 20.832031 22.042969 L 23.847656 22.105469 Z M 15.023438 9.4375 L 17.890625 15.347656 L 12.523438 15.347656 L 15.03125 9.4375 Z M 15.023438 9.4375 " fill-opacity="1" fill-rule="nonzero"/></svg>