<svg xmlns="http://www.w3.org/2000/svg" xmlns:xlink="http://www.w3.org/1999/xlink" width="40" zoomAndPan="magnify" viewBox="0 0 30 30.000001" height="40" preserveAspectRatio="xMidYMid meet" version="1.0"><defs><clipPath id="d69e43aa97"><path d="M 9 1 L 28.445312 1 L 28.445312 29.03125 L 9 29.03125 Z M 9 1 " clip-rule="nonzero"/></clipPath><clipPath id="9482dc0c32"><path d="M 1.59375 0 L 17 0 L 17 24 L 1.59375 24 Z M 1.59375 0 " clip-rule="nonzero"/></clipPath></defs><path fill="#9feaf9" d="M 11.101562 6.253906 C 7.316406 5.5625 4.320312 6.285156 3.125 8.355469 C 2.234375 9.894531 2.492188 11.941406 3.742188 14.128906 C 3.796875 14.21875 3.875 14.28125 3.980469 14.308594 C 4.082031 14.335938 4.179688 14.324219 4.273438 14.269531 C 4.367188 14.21875 4.425781 14.140625 4.457031 14.035156 C 4.484375 13.933594 4.472656 13.832031 4.417969 13.742188 C 3.289062 11.769531 3.070312 10.007812 3.800781 8.742188 C 4.796875 7.023438 7.460938 6.378906 10.964844 7.019531 C 11.070312 7.035156 11.164062 7.015625 11.253906 6.953125 C 11.339844 6.894531 11.394531 6.808594 11.414062 6.707031 C 11.433594 6.601562 11.414062 6.503906 11.351562 6.414062 C 11.289062 6.328125 11.207031 6.273438 11.101562 6.253906 Z M 5.714844 16.78125 C 7.246094 18.464844 9.234375 20.042969 11.503906 21.351562 C 17.003906 24.523438 22.851562 25.375 25.730469 23.410156 C 25.816406 23.351562 25.871094 23.265625 25.890625 23.160156 C 25.914062 23.054688 25.890625 22.960938 25.832031 22.871094 C 25.769531 22.78125 25.6875 22.726562 25.582031 22.707031 C 25.476562 22.6875 25.378906 22.707031 25.292969 22.769531 C 22.710938 24.527344 17.15625 23.722656 11.886719 20.683594 C 9.6875 19.414062 7.757812 17.882812 6.28125 16.261719 C 6.210938 16.183594 6.121094 16.140625 6.015625 16.136719 C 5.90625 16.128906 5.8125 16.164062 5.734375 16.234375 C 5.65625 16.308594 5.613281 16.398438 5.609375 16.503906 C 5.601562 16.613281 5.636719 16.707031 5.707031 16.785156 Z M 24.8125 16.3125 C 27.292969 13.382812 28.160156 10.4375 26.96875 8.375 C 26.09375 6.855469 24.238281 6.054688 21.777344 6.023438 C 21.671875 6.023438 21.578125 6.058594 21.5 6.132812 C 21.425781 6.207031 21.386719 6.296875 21.382812 6.40625 C 21.382812 6.511719 21.417969 6.605469 21.496094 6.679688 C 21.570312 6.757812 21.660156 6.796875 21.765625 6.800781 C 23.984375 6.828125 25.578125 7.519531 26.296875 8.761719 C 27.285156 10.476562 26.511719 13.105469 24.21875 15.8125 C 24.152344 15.894531 24.121094 15.988281 24.128906 16.09375 C 24.140625 16.203125 24.183594 16.289062 24.265625 16.359375 C 24.347656 16.429688 24.441406 16.457031 24.550781 16.449219 C 24.65625 16.441406 24.742188 16.394531 24.8125 16.3125 Z M 18.441406 6.382812 C 16.199219 6.863281 13.8125 7.800781 11.519531 9.125 C 5.847656 12.398438 2.148438 17.234375 2.660156 20.730469 C 2.675781 20.835938 2.726562 20.921875 2.8125 20.984375 C 2.898438 21.046875 2.996094 21.074219 3.101562 21.058594 C 3.207031 21.042969 3.292969 20.992188 3.355469 20.90625 C 3.421875 20.820312 3.445312 20.722656 3.429688 20.617188 C 2.972656 17.507812 6.480469 12.929688 11.90625 9.792969 C 14.125 8.507812 16.441406 7.601562 18.601562 7.136719 C 18.707031 7.113281 18.789062 7.058594 18.847656 6.96875 C 18.90625 6.878906 18.921875 6.78125 18.902344 6.675781 C 18.878906 6.570312 18.820312 6.488281 18.730469 6.429688 C 18.640625 6.375 18.546875 6.355469 18.441406 6.378906 Z M 18.441406 6.382812 " fill-opacity="1" fill-rule="evenodd"/><g clip-path="url(#d69e43aa97)"><path fill="#9feaf9" d="M 9.253906 23.15625 C 10.550781 26.777344 12.671875 29.007812 15.054688 29.007812 C 16.796875 29.007812 18.40625 27.820312 19.660156 25.734375 C 19.714844 25.640625 19.730469 25.542969 19.703125 25.441406 C 19.679688 25.335938 19.621094 25.257812 19.527344 25.199219 C 19.4375 25.144531 19.335938 25.132812 19.234375 25.15625 C 19.128906 25.183594 19.050781 25.242188 18.996094 25.332031 C 17.863281 27.210938 16.480469 28.230469 15.054688 28.230469 C 13.074219 28.230469 11.183594 26.238281 9.984375 22.894531 C 9.949219 22.792969 9.878906 22.722656 9.785156 22.675781 C 9.6875 22.628906 9.589844 22.625 9.488281 22.660156 C 9.386719 22.699219 9.3125 22.765625 9.265625 22.859375 C 9.222656 22.957031 9.214844 23.058594 9.253906 23.15625 Z M 21.097656 22.449219 C 21.765625 20.304688 22.128906 17.832031 22.128906 15.25 C 22.128906 8.816406 19.875 3.269531 16.667969 1.847656 C 16.570312 1.804688 16.472656 1.800781 16.371094 1.839844 C 16.269531 1.878906 16.199219 1.945312 16.15625 2.042969 C 16.113281 2.140625 16.109375 2.242188 16.148438 2.339844 C 16.1875 2.441406 16.253906 2.511719 16.351562 2.554688 C 19.214844 3.828125 21.351562 9.089844 21.351562 15.25 C 21.351562 17.753906 21.003906 20.148438 20.355469 22.21875 C 20.324219 22.320312 20.332031 22.417969 20.382812 22.515625 C 20.429688 22.609375 20.507812 22.671875 20.609375 22.703125 C 20.710938 22.738281 20.808594 22.726562 20.90625 22.679688 C 21 22.628906 21.0625 22.550781 21.097656 22.449219 Z M 28.410156 22.070312 C 28.410156 21.042969 27.578125 20.210938 26.550781 20.210938 C 25.523438 20.210938 24.6875 21.039062 24.6875 22.070312 C 24.6875 23.101562 25.519531 23.929688 26.546875 23.929688 C 27.574219 23.929688 28.40625 23.09375 28.40625 22.070312 Z M 27.632812 22.070312 C 27.632812 22.210938 27.605469 22.351562 27.550781 22.484375 C 27.496094 22.617188 27.417969 22.730469 27.316406 22.832031 C 27.214844 22.933594 27.097656 23.011719 26.964844 23.070312 C 26.832031 23.125 26.695312 23.152344 26.550781 23.152344 C 26.410156 23.152344 26.269531 23.125 26.136719 23.070312 C 26.007812 23.011719 25.890625 22.933594 25.789062 22.832031 C 25.6875 22.730469 25.609375 22.617188 25.554688 22.484375 C 25.496094 22.351562 25.46875 22.210938 25.46875 22.070312 C 25.46875 21.925781 25.496094 21.789062 25.554688 21.65625 C 25.609375 21.523438 25.6875 21.40625 25.789062 21.304688 C 25.890625 21.203125 26.007812 21.125 26.136719 21.070312 C 26.269531 21.015625 26.410156 20.988281 26.550781 20.988281 C 26.695312 20.988281 26.832031 21.015625 26.964844 21.070312 C 27.097656 21.125 27.214844 21.203125 27.316406 21.304688 C 27.417969 21.40625 27.496094 21.523438 27.550781 21.65625 C 27.605469 21.789062 27.632812 21.925781 27.632812 22.070312 Z M 27.632812 22.070312 " fill-opacity="1" fill-rule="evenodd"/></g><g clip-path="url(#9482dc0c32)"><path fill="#9feaf9" d="M 3.53125 23.929688 C 4.558594 23.929688 5.390625 23.09375 5.390625 22.070312 C 5.390625 21.042969 4.558594 20.210938 3.53125 20.210938 C 3.285156 20.210938 3.046875 20.257812 2.820312 20.351562 C 2.59375 20.445312 2.390625 20.582031 2.21875 20.753906 C 2.042969 20.929688 1.910156 21.128906 1.816406 21.359375 C 1.722656 21.585938 1.671875 21.824219 1.671875 22.070312 C 1.671875 22.316406 1.722656 22.554688 1.816406 22.78125 C 1.910156 23.007812 2.042969 23.210938 2.21875 23.382812 C 2.394531 23.558594 2.59375 23.691406 2.820312 23.785156 C 3.050781 23.882812 3.285156 23.929688 3.53125 23.929688 Z M 3.53125 23.152344 C 3.390625 23.152344 3.25 23.125 3.117188 23.070312 C 2.984375 23.015625 2.867188 22.9375 2.765625 22.835938 C 2.667969 22.734375 2.589844 22.617188 2.53125 22.484375 C 2.476562 22.351562 2.449219 22.210938 2.449219 22.070312 C 2.449219 21.925781 2.476562 21.789062 2.53125 21.65625 C 2.589844 21.523438 2.667969 21.40625 2.765625 21.304688 C 2.867188 21.203125 2.984375 21.125 3.117188 21.070312 C 3.25 21.015625 3.390625 20.988281 3.53125 20.988281 C 3.675781 20.988281 3.8125 21.015625 3.945312 21.070312 C 4.078125 21.125 4.195312 21.203125 4.296875 21.304688 C 4.398438 21.40625 4.476562 21.523438 4.53125 21.65625 C 4.585938 21.789062 4.613281 21.925781 4.613281 22.070312 C 4.613281 22.210938 4.585938 22.351562 4.53125 22.484375 C 4.476562 22.617188 4.398438 22.734375 4.296875 22.835938 C 4.195312 22.9375 4.078125 23.015625 3.945312 23.070312 C 3.8125 23.125 3.675781 23.152344 3.53125 23.152344 Z M 15.054688 3.738281 C 16.082031 3.738281 16.914062 2.90625 16.914062 1.878906 C 16.914062 0.851562 16.082031 0.0234375 15.054688 0.0234375 C 14.03125 0.0234375 13.195312 0.855469 13.195312 1.882812 C 13.195312 2.910156 14.03125 3.738281 15.054688 3.738281 Z M 15.054688 2.960938 C 14.914062 2.960938 14.773438 2.933594 14.640625 2.878906 C 14.507812 2.824219 14.390625 2.746094 14.292969 2.644531 C 14.191406 2.542969 14.113281 2.425781 14.054688 2.292969 C 14 2.160156 13.972656 2.023438 13.972656 1.878906 C 13.972656 1.734375 14 1.597656 14.054688 1.464844 C 14.113281 1.332031 14.191406 1.214844 14.292969 1.113281 C 14.390625 1.011719 14.507812 0.933594 14.640625 0.878906 C 14.773438 0.824219 14.914062 0.796875 15.054688 0.796875 C 15.199219 0.796875 15.335938 0.824219 15.46875 0.878906 C 15.601562 0.933594 15.71875 1.011719 15.820312 1.113281 C 15.921875 1.214844 16 1.332031 16.054688 1.464844 C 16.109375 1.597656 16.136719 1.734375 16.136719 1.878906 C 16.136719 2.023438 16.109375 2.160156 16.054688 2.292969 C 16 2.425781 15.921875 2.542969 15.820312 2.644531 C 15.71875 2.746094 15.601562 2.824219 15.46875 2.878906 C 15.335938 2.933594 15.199219 2.960938 15.054688 2.960938 Z M 15.339844 16.566406 C 15.164062 16.605469 14.988281 16.609375 14.8125 16.578125 C 14.636719 16.546875 14.472656 16.480469 14.320312 16.386719 C 14.171875 16.289062 14.042969 16.167969 13.941406 16.019531 C 13.839844 15.871094 13.769531 15.710938 13.730469 15.535156 C 13.695312 15.363281 13.691406 15.1875 13.722656 15.007812 C 13.757812 14.832031 13.820312 14.671875 13.917969 14.519531 C 14.015625 14.371094 14.140625 14.242188 14.285156 14.144531 C 14.433594 14.042969 14.597656 13.972656 14.773438 13.9375 C 14.945312 13.898438 15.121094 13.894531 15.296875 13.925781 C 15.476562 13.957031 15.636719 14.019531 15.789062 14.117188 C 15.941406 14.210938 16.066406 14.335938 16.167969 14.480469 C 16.269531 14.628906 16.339844 14.789062 16.378906 14.964844 C 16.417969 15.140625 16.417969 15.316406 16.386719 15.492188 C 16.355469 15.667969 16.289062 15.832031 16.191406 15.980469 C 16.09375 16.132812 15.972656 16.257812 15.824219 16.359375 C 15.675781 16.460938 15.515625 16.527344 15.339844 16.566406 Z M 15.339844 16.566406 " fill-opacity="1" fill-rule="evenodd"/></g></svg>