<svg xmlns="http://www.w3.org/2000/svg" xmlns:xlink="http://www.w3.org/1999/xlink" width="40" zoomAndPan="magnify" viewBox="0 0 30 30.000001" height="40" preserveAspectRatio="xMidYMid meet" version="1.0"><defs><clipPath id="418b5e27f7"><path d="M 1 0 L 29.515625 0 L 29.515625 29 L 1 29 Z M 1 0 " clip-rule="nonzero"/></clipPath></defs><path fill="#f36933" d="M 23.304688 7.875 C 23.261719 7.90625 23.234375 7.957031 23.234375 8.011719 C 23.234375 8.03125 23.238281 8.046875 23.242188 8.0625 L 23.242188 8.058594 C 23.273438 8.125 23.292969 8.195312 23.292969 8.273438 C 23.292969 8.394531 23.25 8.5 23.179688 8.585938 C 23.160156 8.613281 23.144531 8.648438 23.144531 8.6875 C 23.144531 8.738281 23.171875 8.785156 23.207031 8.8125 C 23.234375 8.835938 23.269531 8.847656 23.304688 8.847656 C 23.355469 8.847656 23.398438 8.824219 23.429688 8.789062 C 23.542969 8.652344 23.617188 8.472656 23.617188 8.273438 C 23.617188 8.144531 23.585938 8.023438 23.53125 7.914062 C 23.5 7.871094 23.453125 7.84375 23.398438 7.84375 C 23.363281 7.84375 23.332031 7.855469 23.304688 7.875 Z M 23.304688 7.875 " fill-opacity="1" fill-rule="nonzero"/><path fill="#f36933" d="M 23.53125 7.914062 L 23.527344 7.910156 Z M 23.53125 7.914062 " fill-opacity="1" fill-rule="nonzero"/><g clip-path="url(#418b5e27f7)"><path fill="#f36933" d="M 17.085938 0.933594 C 9.417969 -0.0507812 2.398438 5.367188 1.417969 13.039062 C 0.433594 20.707031 5.851562 27.722656 13.519531 28.707031 C 21.191406 29.691406 28.210938 24.273438 29.191406 16.601562 C 30.179688 8.933594 24.757812 1.917969 17.085938 0.933594 Z M 19.96875 9.667969 C 19.699219 9.671875 19.457031 9.78125 19.277344 9.960938 L 14.082031 15.15625 L 12.972656 14.046875 C 18.09375 8.941406 19.019531 8.890625 19.96875 9.667969 Z M 14.296875 15.339844 L 19.476562 10.160156 C 19.609375 10.019531 19.792969 9.933594 20 9.933594 C 20.398438 9.933594 20.722656 10.257812 20.722656 10.65625 C 20.722656 10.878906 20.625 11.078125 20.464844 11.210938 L 14.980469 16.027344 Z M 14.679688 16.148438 L 13.398438 16.425781 C 13.390625 16.429688 13.386719 16.429688 13.382812 16.429688 C 13.355469 16.429688 13.328125 16.414062 13.316406 16.390625 C 13.3125 16.378906 13.308594 16.367188 13.308594 16.355469 C 13.308594 16.335938 13.316406 16.316406 13.328125 16.304688 L 14.082031 15.550781 Z M 11.410156 15.613281 L 12.777344 14.246094 L 13.800781 15.269531 L 11.492188 15.769531 C 11.484375 15.769531 11.480469 15.769531 11.472656 15.769531 C 11.4375 15.769531 11.40625 15.75 11.394531 15.722656 C 11.386719 15.710938 11.382812 15.695312 11.382812 15.675781 C 11.382812 15.652344 11.390625 15.628906 11.410156 15.613281 Z M 7.15625 22.683594 C 7.109375 22.679688 7.074219 22.640625 7.074219 22.59375 C 7.074219 22.589844 7.074219 22.589844 7.074219 22.585938 C 7.074219 22.566406 7.085938 22.546875 7.097656 22.53125 L 7.101562 22.53125 L 8.207031 21.429688 L 9.632812 22.855469 Z M 9.984375 21.21875 C 9.898438 21.261719 9.839844 21.351562 9.839844 21.453125 C 9.839844 21.476562 9.84375 21.5 9.847656 21.519531 L 9.847656 21.515625 L 10.085938 22.527344 C 10.089844 22.535156 10.089844 22.546875 10.089844 22.5625 C 10.089844 22.640625 10.023438 22.707031 9.945312 22.707031 C 9.902344 22.707031 9.867188 22.691406 9.839844 22.664062 L 9.835938 22.664062 L 8.402344 21.230469 L 12.792969 16.84375 L 14.917969 16.382812 L 15.9375 17.40625 C 14.472656 18.691406 12.46875 19.972656 9.984375 21.21875 Z M 16.144531 17.21875 L 16.140625 17.21875 L 15.164062 16.238281 L 20.648438 11.425781 C 20.695312 11.378906 20.742188 11.332031 20.785156 11.277344 C 20.613281 12.847656 18.417969 15.0625 16.144531 17.21875 Z M 21.910156 10.300781 C 21.328125 10.300781 20.796875 10.0625 20.414062 9.679688 L 20.410156 9.675781 C 20.027344 9.292969 19.789062 8.761719 19.789062 8.175781 C 19.789062 7.003906 20.742188 6.050781 21.917969 6.050781 C 22.4375 6.050781 22.914062 6.238281 23.28125 6.546875 L 23.277344 6.546875 L 21.398438 8.429688 C 21.375 8.453125 21.359375 8.488281 21.359375 8.527344 C 21.359375 8.566406 21.375 8.597656 21.398438 8.625 L 22.855469 10.078125 C 22.578125 10.21875 22.253906 10.300781 21.910156 10.300781 Z M 23.421875 9.679688 C 23.328125 9.773438 23.226562 9.855469 23.113281 9.929688 L 23.105469 9.933594 L 21.695312 8.523438 L 23.484375 6.734375 C 24.257812 7.574219 24.226562 8.875 23.421875 9.679688 Z M 23.421875 9.679688 " fill-opacity="1" fill-rule="nonzero"/></g></svg>